# xmcd CD database file
#
# Track frame offsets:
#	150
#	20680
#	43432
#	64242
#	88160
#	119952
#	150022
#	168560
#	192697
#	212692
#	248662
#
# Disc length: 4440 seconds
#
# Revision: 0
# Processed by: cddbd v1.5PL3 Copyright (c) Steve Scherf et al.
# Submitted via: CDex 1.51
#
DISCID=a311560b
DTITLE=上妻宏光 - BEYOND
DYEAR=2004
DGENRE=New Age
TTITLE0=暁の光
TTITLE1=悲しみの果て
TTITLE2=Shami's Groove
TTITLE3=紙の舞(Beyond Version)
TTITLE4=ペンロネ〜津軽よされ節
TTITLE5=tears...
TTITLE6=panther
TTITLE7=鼓動
TTITLE8=In the sky
TTITLE9=君への想い
TTITLE10=CCCD
EXTD=YEAR: 2004
EXTT0=
EXTT1=
EXTT2=
EXTT3=
EXTT4=
EXTT5=
EXTT6=
EXTT7=
EXTT8=
EXTT9=
EXTT10=
PLAYORDER=
